<?xml version="1.0" encoding="UTF-8"?>
<svg version="1.1" xmlns="http://www.w3.org/2000/svg" width="629" height="397">
<path d="M0 0 C2.1640625 0.00390625 2.1640625 0.00390625 5 1 C7.13413402 3.42928021 8.72201316 6.16653127 10.375 8.9375 C11.34358368 10.50091068 12.31363068 12.06341575 13.28515625 13.625 C13.98342529 14.76001953 13.98342529 14.76001953 14.69580078 15.91796875 C16.30918074 18.49357794 18.03766291 20.97091126 19.8125 23.4375 C22.59435155 27.34266453 25.04500284 31.37802069 27.4765625 35.5078125 C29.5465579 38.89411267 31.83061028 42.10702164 34.125 45.34375 C36.23684548 48.33553109 38.31658175 51.34618457 40.375 54.375 C41.04273438 55.35210937 41.71046875 56.32921875 42.3984375 57.3359375 C43.79743384 59.66304848 44.560671 61.35147376 45 64 C45.66 64 46.32 64 47 64 C59.98559867 80.6163328 63.82382629 101.40297792 62 122 C59.87528855 137.07101803 52.1617489 149.60493358 40.375 159.125 C26.77612828 168.67880616 11.66703772 173.60537485 -5 172 C-20.89571685 169.10540959 -35.14509899 162.13194819 -46 150 C-47.03013277 148.35178756 -48.02673896 146.68242109 -49 145 C-49.7425 143.71996094 -49.7425 143.71996094 -50.5 142.4140625 C-59.3499877 125.95861662 -60.33121774 107.48633697 -55.19921875 89.7578125 C-51.45246427 78.01716816 -45.81825244 68.18849129 -39 58 C-38.37480469 57.05640625 -37.74960937 56.1128125 -37.10546875 55.140625 C-33.33118434 49.45229412 -29.50382553 43.81415888 -25.54296875 38.25390625 C-24.47011043 36.68671827 -23.4524691 35.08088001 -22.48046875 33.44921875 C-21.14506254 31.23998473 -19.72344564 29.27181773 -18.125 27.25 C-16.06559086 24.54765337 -14.32649636 21.882642 -12.75 18.875 C-9.17240673 12.15668128 -4.48869072 6.12728073 0 0 Z " fill="#16B3DC" transform="translate(308,223)"/>
<path d="M0 0 C-0.44344013 5.58734562 -1.24435314 10.3417658 -3.28125 15.56640625 C-10.43026068 39.77202394 -2.21744202 65.62990626 9 87 C10.55413446 90.1553639 12.09888498 93.3151293 13.640625 96.4765625 C14.90607398 98.97997517 14.90607398 98.97997517 16.484375 100.9609375 C19.0306597 104.38660919 20.65850441 108.28855085 22.5 112.125 C23.82855529 114.67139764 25.25583922 116.73581239 27 119 C31.74119195 126.99988731 35.80881923 135.41889112 39.90283203 143.76416016 C40.65607343 145.29913673 41.41242645 146.83258911 42.17138672 148.36474609 C55.46037823 175.26183799 60.96889923 204.09605471 51.10058594 233.28686523 C45.64982336 248.03436924 37.06977797 264.89141942 24.59375 274.73046875 C22.74466212 276.15454385 22.74466212 276.15454385 20.3125 278.6875 C16.28571429 282.71428571 16.28571429 282.71428571 14 284 C11.25 283.6875 11.25 283.6875 9 283 C9.46801299 278.00786149 11.91715737 273.87036007 15 270 C15.66 270 16.32 270 17 270 C17.103125 269.278125 17.20625 268.55625 17.3125 267.8125 C18 265 18 265 19.4140625 262.671875 C28.79783138 246.86276684 28.99964669 225.22098818 25.0390625 207.75 C20.9458968 192.97767266 14.73457385 178.52768484 5.578125 166.18359375 C4 164 4 164 2.48046875 161.46484375 C1.12714753 159.21168889 -0.32037228 157.19252138 -1.9375 155.125 C-3.83423268 152.63495439 -5.54822079 150.17674492 -7.0625 147.4375 C-8.79598923 144.3619546 -10.65322285 141.59730698 -12.75390625 138.7734375 C-14.29315706 136.5827796 -15.63006854 134.30069828 -17 132 C-17.7065317 130.86784884 -18.4164268 129.73779262 -19.12890625 128.609375 C-52.51713608 75.70505294 -52.51713608 75.70505294 -45.95703125 44.88671875 C-41.68481718 32.00032611 -34.71379404 20.38470838 -24 12 C-23.34902344 11.45988281 -22.69804687 10.91976562 -22.02734375 10.36328125 C-15.6136445 5.14861572 -8.62777413 -0.50481657 0 0 Z " fill="#E20719" transform="translate(367,95)"/>
<path d="M0 0 C9.04238048 -1.04335159 16.70986983 3.21555048 23.75 8.6875 C26 11 26 11 26 14 C26.99 14.33 27.98 14.66 29 15 C30.5703125 17.51171875 30.5703125 17.51171875 32.125 20.6875 C32.64320313 21.72261719 33.16140625 22.75773437 33.6953125 23.82421875 C36.30599949 30.17897482 36.1826865 36.482216 36.1875 43.25 C36.19974609 44.14074219 36.21199219 45.03148437 36.22460938 45.94921875 C36.27681921 69.93093847 22.59360778 89.94983018 8.7890625 108.51171875 C7.11004949 110.8469399 5.60216199 113.22124416 4.125 115.6875 C3.073125 117.3271875 3.073125 117.3271875 2 119 C1.34 119 0.68 119 0 119 C-0.268125 119.72574219 -0.53625 120.45148438 -0.8125 121.19921875 C-1.98670381 123.96864024 -3.3394324 126.30919434 -5 128.8125 C-5.515625 129.60269531 -6.03125 130.39289063 -6.5625 131.20703125 C-7.2740625 132.09455078 -7.2740625 132.09455078 -8 133 C-8.66 133 -9.32 133 -10 133 C-10.09796875 133.53882813 -10.1959375 134.07765625 -10.296875 134.6328125 C-11.19904127 137.67010561 -12.6735635 140.12651724 -14.25 142.875 C-24.16137943 161.02890237 -27.8975302 181.47261482 -23.9609375 201.92578125 C-21.85661613 208.65789881 -18.41088234 214.85029476 -15 221 C-14.65259766 221.6293042 -14.30519531 222.2586084 -13.94726562 222.90698242 C-11.86082329 226.62875776 -9.59543593 229.98949502 -6.953125 233.32421875 C-6 235 -6 235 -6 239 C-15.7191859 238.24219219 -21.79860502 231.70667774 -28 224.625 C-28.515625 223.99851562 -29.03125 223.37203125 -29.5625 222.7265625 C-30.96690193 220.95978568 -30.96690193 220.95978568 -32.6875 219.4609375 C-34 218 -34 218 -34 215 C-34.99 214.67 -35.98 214.34 -37 214 C-39.30061994 210.85275192 -41.11156497 207.40717643 -43 204 C-43.36351562 203.36835938 -43.72703125 202.73671875 -44.1015625 202.0859375 C-56.34988602 179.48130792 -56.5498329 152.86761082 -49.81640625 128.6015625 C-44.9106639 112.13923106 -36.20879305 97.39207888 -27 83 C-26.19029606 81.69860675 -25.3817527 80.39649087 -24.57421875 79.09375 C-23.75839564 77.79130122 -22.94200111 76.48921017 -22.125 75.1875 C-21.74335693 74.56963623 -21.36171387 73.95177246 -20.96850586 73.31518555 C-20.03260269 71.84135378 -19.02258315 70.41506838 -18 69 C-17.34 69 -16.68 69 -16 69 C-15.87778076 68.41154297 -15.75556152 67.82308594 -15.62963867 67.21679688 C-14.9934337 64.97688172 -14.19612922 63.46961404 -12.92578125 61.53125 C-12.50820557 60.88406006 -12.09062988 60.23687012 -11.66040039 59.57006836 C-11.21559326 58.8869458 -10.77078613 58.20382324 -10.3125 57.5 C-1.95084558 44.29934928 5.94790135 30.57632484 3.52734375 14.28515625 C2.7857204 11.07145507 1.79033959 7.99271347 0.62109375 4.91015625 C0 3 0 3 0 0 Z " fill="#E20819" transform="translate(255,141)"/>
<path d="M0 0 C6.92579375 1.55830359 11.67402796 5.80306927 15.7734375 11.4375 C22.695433 22.51269279 24.21127244 34.31546816 21.7265625 47.0703125 C20.30071958 52.81967909 18.21963357 58.29997686 15.78271484 63.69482422 C11.22445727 74.27302181 10.34230076 84.97385777 9.16333008 96.32788086 C8.89335978 98.87023924 8.60172303 101.40944407 8.30859375 103.94921875 C8.23555527 104.72931808 8.16251678 105.50941742 8.08726501 106.31315613 C7.46857187 111.62781027 7.46857187 111.62781027 5.06176758 113.53955078 C1.32978695 114.37300436 -1.1786849 112.49882045 -4.40234375 110.7421875 C-13.26967477 104.79507527 -18.87893651 95.38841895 -21.375 85.125 C-23.87217284 69.60858623 -16.76376673 57.22306788 -9.96484375 43.859375 C-9.48253296 42.91118896 -9.48253296 42.91118896 -8.99047852 41.94384766 C-8.31045578 40.60927998 -7.62855099 39.27567014 -6.94506836 37.94287109 C-1.15511869 26.54665105 0.44121523 17.2059979 -0.73828125 4.578125 C-0.82464844 3.39734375 -0.91101563 2.2165625 -1 1 C-0.67 0.67 -0.34 0.34 0 0 Z " fill="#E20719" transform="translate(293,35)"/>
<path d="M0 0 C0.33 0.66 0.66 1.32 1 2 C-0.0390625 4.109375 -0.0390625 4.109375 -1.625 6.75 C-11.54233056 24.37055941 -14.79194851 45.02118056 -10.9609375 64.92578125 C-8.85661613 71.65789881 -5.41088234 77.85029476 -2 84 C-1.65259766 84.6293042 -1.30519531 85.2586084 -0.94726562 85.90698242 C1.13917671 89.62875776 3.40456407 92.98949502 6.046875 96.32421875 C7 98 7 98 7 102 C-2.81310646 101.23486917 -8.91508704 94.56235042 -15.1875 87.4375 C-16.13462968 86.29961352 -17.07630125 85.15698785 -18 84 C-15.13822943 82.56911472 -13.06624227 83.40008303 -10 84 C-10 85.98 -10 87.96 -10 90 C-8.35 90.33 -6.7 90.66 -5 91 C-4.67 89.68 -4.34 88.36 -4 87 C-4.66 87 -5.32 87 -6 87 C-6.433125 85.8553125 -6.433125 85.8553125 -6.875 84.6875 C-7.96269013 81.84970692 -7.96269013 81.84970692 -10 79 C-10 78.01 -10 77.02 -10 76 C-10.66 76 -11.32 76 -12 76 C-17.07407072 45.15972619 -17.07407072 45.15972619 -13.50390625 32.15234375 C-12.68877875 28.67067513 -12.55207182 25.1404281 -12.34375 21.578125 C-11.97227849 18.79208867 -11.14119538 16.55848642 -10 14 C-9.34 14 -8.68 14 -8 14 C-7.8453125 12.39125 -7.8453125 12.39125 -7.6875 10.75 C-7.02797801 7.15260731 -6.54223809 5.54223809 -4 3 C-3.34 3 -2.68 3 -2 3 C-2 2.34 -2 1.68 -2 1 C-1.34 0.67 -0.68 0.34 0 0 Z " fill="#E13742" transform="translate(242,278)"/>
<path d="M0 0 C2.57269791 2.29849332 3.90581024 4.52347387 5.33984375 7.6484375 C5.76136719 8.56488037 6.18289063 9.48132324 6.6171875 10.42553711 C7.05289062 11.39885986 7.48859375 12.37218262 7.9375 13.375 C8.38480469 14.37217041 8.83210938 15.36934082 9.29296875 16.39672852 C20.25615305 41.20697887 22.92349055 69.4079909 13.375 95.25 C8.90515466 106.6270052 2.70585622 117.51586927 -5 127 C-5.33 125.68 -5.66 124.36 -6 123 C-5.34 123 -4.68 123 -4 123 C-3.87625 122.38125 -3.7525 121.7625 -3.625 121.125 C-3 119 -3 119 -1 117 C-0.5359375 115.7315625 -0.5359375 115.7315625 -0.0625 114.4375 C0.288125 113.633125 0.63875 112.82875 1 112 C2.485 111.505 2.485 111.505 4 111 C4.33 109.02 4.66 107.04 5 105 C5.66 105 6.32 105 7 105 C7.66 101.7 8.32 98.4 9 95 C9.66 95 10.32 95 11 95 C10.9071875 93.9790625 10.9071875 93.9790625 10.8125 92.9375 C11.01214035 89.80980114 11.99276026 87.67004033 13.27172852 84.84448242 C16.19618529 77.43775399 15.14852439 68.28657327 15.125 60.5 C15.12886719 59.21996094 15.13273437 57.93992187 15.13671875 56.62109375 C15.47164126 45.45349715 15.47164126 45.45349715 12.4375 34.9375 C10.71748826 31.4226934 10.76817424 28.86376273 11 25 C10.34 25 9.68 25 9 25 C8.32871244 23.44543934 7.65928802 21.8900618 6.99609375 20.33203125 C6.24606512 18.57608187 5.48664106 16.82414114 4.72265625 15.07421875 C4.27792969 14.03910156 3.83320313 13.00398437 3.375 11.9375 C2.94960938 10.95652344 2.52421875 9.97554687 2.0859375 8.96484375 C0.9879196 5.96701789 0.42231164 3.15795257 0 0 Z " fill="#E35963" transform="translate(404,235)"/>
<path d="M0 0 C0.66 0 1.32 0 2 0 C1.19899303 5.99374178 -0.38135985 11.07599571 -2.9375 16.5625 C-7.32560582 26.47834106 -8.53744961 36.64796643 -9.703125 47.34765625 C-9.82598877 48.43771973 -9.94885254 49.5277832 -10.07543945 50.65087891 C-10.31401346 52.8165453 -10.53436199 54.98430871 -10.73510742 57.15380859 C-10.84185791 58.1433252 -10.9486084 59.1328418 -11.05859375 60.15234375 C-11.14423584 61.03913818 -11.22987793 61.92593262 -11.31811523 62.83959961 C-12 65 -12 65 -13.9152832 66.33935547 C-16.83158583 67.26352866 -18.04447025 66.54457304 -20.75 65.1875 C-26.9329651 61.86243877 -32.73488961 56.79533118 -35 50 C-32 51 -32 51 -30 53 C-29.01 52.505 -29.01 52.505 -28 52 C-27.814375 53.11375 -27.62875 54.2275 -27.4375 55.375 C-26.963125 56.57125 -26.48875 57.7675 -26 59 C-22.48599332 60.54086322 -22.48599332 60.54086322 -19 61 C-19 61.66 -19 62.32 -19 63 C-18.01 63 -17.02 63 -16 63 C-15.92652344 61.43765625 -15.92652344 61.43765625 -15.8515625 59.84375 C-15.22206671 47.44909455 -13.76812043 35.28212225 -12 23 C-11.34 23 -10.68 23 -10 23 C-9.67 21.35 -9.34 19.7 -9 18 C-8.01 17.67 -7.02 17.34 -6 17 C-4.55455128 14.12577012 -4.55455128 14.12577012 -3.375 10.6875 C-2.94960938 9.53636719 -2.52421875 8.38523437 -2.0859375 7.19921875 C-1.27119792 4.79896079 -0.54890186 2.47005839 0 0 Z " fill="#DF1C2B" transform="translate(312,82)"/>
<path d="M0 0 C6.92579375 1.55830359 11.67402796 5.80306927 15.7734375 11.4375 C22.70364848 22.52583756 23.91692972 34.22046857 22 47 C21.67 47 21.34 47 21 47 C20.98541748 46.41508789 20.97083496 45.83017578 20.95581055 45.22753906 C20.8811643 42.56770603 20.78456101 39.90910552 20.6875 37.25 C20.65366211 35.86941406 20.65366211 35.86941406 20.61914062 34.4609375 C20.58369141 33.57148437 20.54824219 32.68203125 20.51171875 31.765625 C20.48553467 30.94868164 20.45935059 30.13173828 20.43237305 29.29003906 C19.91011622 26.52393571 18.78225137 25.14185353 17 23 C16.19140625 21.03515625 16.19140625 21.03515625 15.5625 19.0625 C14.25453767 15.42324731 12.77458298 12.77458298 10 10 C8.35109819 9.29053186 6.68551429 8.61746563 5 8 C4.86722656 9.21558594 4.73445313 10.43117188 4.59765625 11.68359375 C4.41949909 13.26825484 4.24110125 14.8528889 4.0625 16.4375 C3.93198242 17.64116211 3.93198242 17.64116211 3.79882812 18.86914062 C3.11328125 24.88671875 3.11328125 24.88671875 2 26 C1.63157566 27.47081904 1.30421576 28.95207147 1 30.4375 C0.50571219 32.84329145 0.09957877 34.80084246 -1 37 C-1.66 37 -2.32 37 -3 37 C-3 38.32 -3 39.64 -3 41 C-3.66 41 -4.32 41 -5 41 C-5.04125 41.928125 -5.0825 42.85625 -5.125 43.8125 C-6 47 -6 47 -9.0625 48.875 C-10.031875 49.24625 -11.00125 49.6175 -12 50 C-10.54759293 46.23757407 -8.87713968 42.63137758 -7.125 39 C-1.60744355 26.89391177 0.49558409 17.75031664 -0.73828125 4.578125 C-0.82464844 3.39734375 -0.91101563 2.2165625 -1 1 C-0.67 0.67 -0.34 0.34 0 0 Z " fill="#E02131" transform="translate(293,35)"/>
<path d="M0 0 C2.25 0 2.25 0 5 1 C6.73625807 3.48904129 7.84191843 6.20463068 9 9 C9.53625 10.19625 10.0725 11.3925 10.625 12.625 C14 20.90909091 14 20.90909091 14 24 C14.66 24 15.32 24 16 24 C16 26.31 16 28.62 16 31 C16.66 31 17.32 31 18 31 C22.30643119 51.25048001 21.43100656 67.99632969 16 88 C15.81888672 88.6904541 15.63777344 89.3809082 15.45117188 90.09228516 C12.97019043 99.38137158 12.97019043 99.38137158 9.48828125 101.6015625 C8.25658203 102.29378906 8.25658203 102.29378906 7 103 C5.17370206 106.06680799 5.17370206 106.06680799 4 109 C3.34 109 2.68 109 2 109 C2.7763932 112.0745356 2.7763932 112.0745356 5 114 C3.35 113.67 1.7 113.34 0 113 C0.46801299 108.00786149 2.91715737 103.87036007 6 100 C6.66 100 7.32 100 8 100 C8.1546875 98.9171875 8.1546875 98.9171875 8.3125 97.8125 C9 95 9 95 10.4140625 92.671875 C19.79783138 76.86276684 19.99964669 55.22098818 16.0390625 37.75 C12.74050308 25.84542464 7.7227265 14.91447837 2 4 C1.32985433 2.66841185 0.66147359 1.33591725 0 0 Z " fill="#E95B64" transform="translate(376,265)"/>
<path d="M0 0 C-0.44344013 5.58734562 -1.24435314 10.3417658 -3.28125 15.56640625 C-9.41169811 36.32330394 -4.27845476 61.06683784 5.375 79.8125 C5.89835937 80.76769531 6.42171875 81.72289062 6.9609375 82.70703125 C7.47527344 83.84205078 7.47527344 83.84205078 8 85 C7.67 85.66 7.34 86.32 7 87 C6.67 86.01 6.34 85.02 6 84 C5.34 84 4.68 84 4 84 C4 83.34 4 82.68 4 82 C3.34 82 2.68 82 2 82 C1.74605469 81.28714844 1.49210937 80.57429688 1.23046875 79.83984375 C-1.0406971 73.48299995 -1.0406971 73.48299995 -3.625 67.25 C-7.87922507 57.19455893 -9.34105624 46.83569266 -9.25 36 C-9.25773437 35.07960937 -9.26546875 34.15921875 -9.2734375 33.2109375 C-9.25573765 26.92748994 -8.45447867 21.10947303 -7 15 C-6.01 14.67 -5.02 14.34 -4 14 C-3.67 10.37 -3.34 6.74 -3 3 C-3.90363281 3.3609375 -4.80726563 3.721875 -5.73828125 4.09375 C-6.91777344 4.5578125 -8.09726562 5.021875 -9.3125 5.5 C-10.48425781 5.9640625 -11.65601563 6.428125 -12.86328125 6.90625 C-16 8 -16 8 -19 8 C-16.15378158 5.75852083 -13.28521656 3.96606643 -10.0625 2.3125 C-9.22847656 1.87550781 -8.39445312 1.43851562 -7.53515625 0.98828125 C-4.82851229 -0.06685114 -2.87731627 -0.19044848 0 0 Z " fill="#E34D5A" transform="translate(367,95)"/>
<path d="M0 0 C0.6875 1.6875 0.6875 1.6875 1 4 C-0.375 6.5 -0.375 6.5 -2 9 C-2.69579454 11.19130534 -2.69579454 11.19130534 -3 13 C-3.66 13 -4.32 13 -5 13 C-5 13.66 -5 14.32 -5 15 C-5.66 15 -6.32 15 -7 15 C-6.938125 15.721875 -6.87625 16.44375 -6.8125 17.1875 C-7.03780353 20.56705294 -8.03368567 22.27741093 -10 25 C-10.66 25.33 -11.32 25.66 -12 26 C-12.93215595 28.28856237 -13.7410675 30.52920863 -14.5 32.875 C-14.71269531 33.49375 -14.92539063 34.1125 -15.14453125 34.75 C-19.05095493 46.58909999 -19.39142291 58.3456274 -19.625 70.6875 C-19.66326765 72.37176304 -19.70232416 74.05600835 -19.7421875 75.74023438 C-19.83721445 79.82667552 -19.92158561 83.91320771 -20 88 C-19.34 88 -18.68 88 -18 88 C-15.70387244 97.41002278 -15.70387244 97.41002278 -16 102 C-25.64605644 87.53091534 -24.6085818 65.88043825 -21.47412109 49.39111328 C-17.7105651 31.55226917 -10.365478 14.99889443 0 0 Z " fill="#E26C74" transform="translate(224,231)"/>
<path d="M0 0 C0.99 0.66 1.98 1.32 3 2 C3 2.99 3 3.98 3 5 C3.99 5.33 4.98 5.66 6 6 C7.5703125 8.51171875 7.5703125 8.51171875 9.125 11.6875 C9.64320313 12.72261719 10.16140625 13.75773438 10.6953125 14.82421875 C13.30599949 21.17897482 13.1826865 27.482216 13.1875 34.25 C13.19974609 35.14074219 13.21199219 36.03148437 13.22460938 36.94921875 C13.2562269 51.47220321 8.56496435 64.68051895 1 77 C0.39414062 77.98871094 -0.21171875 78.97742188 -0.8359375 79.99609375 C-4.35763308 85.63799381 -4.35763308 85.63799381 -6 88 C-6.33 88 -6.66 88 -7 88 C-7 86.35 -7 84.7 -7 83 C-6.34 83 -5.68 83 -5 83 C-4.34 81.02 -3.68 79.04 -3 77 C-2.34 77 -1.68 77 -1 77 C-1 76.01 -1 75.02 -1 74 C-0.34 74 0.32 74 1 74 C1.0825 73.236875 1.165 72.47375 1.25 71.6875 C2.10583299 67.47965449 3.51974023 63.68229094 5.0625 59.68359375 C6.07117228 57.02225955 6.07117228 57.02225955 6.5 54.22265625 C6.665 53.48917969 6.83 52.75570312 7 52 C7.99 51.505 7.99 51.505 9 51 C10.38271688 47.39348165 10.11328028 43.64038726 10.09765625 39.828125 C10.0962413 39.1457074 10.09482635 38.46328979 10.09336853 37.76019287 C10.08779084 35.59008316 10.07524254 33.4200783 10.0625 31.25 C10.05748211 29.77474108 10.05291971 28.29948053 10.04882812 26.82421875 C10.03782875 23.21611202 10.02057953 19.60806625 10 16 C9.34 16 8.68 16 8 16 C7.73445313 15.36191406 7.46890625 14.72382813 7.1953125 14.06640625 C6.84210938 13.24011719 6.48890625 12.41382813 6.125 11.5625 C5.77695312 10.73878906 5.42890625 9.91507813 5.0703125 9.06640625 C4.1755063 6.84253285 4.1755063 6.84253285 2 6 C2 5.34 2 4.68 2 4 C1.34 4 0.68 4 0 4 C0 2.68 0 1.36 0 0 Z " fill="#E55C64" transform="translate(278,150)"/>
<path d="M0 0 C0.33 0.66 0.66 1.32 1 2 C-0.0390625 4.109375 -0.0390625 4.109375 -1.625 6.75 C-12.1807213 25.50481645 -14.96267267 47.07629901 -10 68 C-9.39421747 70.01927511 -8.76410381 72.03516163 -8 74 C-10.86192543 72.56903729 -10.99711359 70.8483598 -12.0625 67.875 C-12.40410156 66.94429688 -12.74570313 66.01359375 -13.09765625 65.0546875 C-14.84376132 59.14363052 -15.1941449 53.25824297 -15.1875 47.125 C-15.18741943 46.42028564 -15.18733887 45.71557129 -15.18725586 44.98950195 C-15.13809222 40.49905017 -14.68842416 36.46796496 -13.50390625 32.15234375 C-12.68877875 28.67067513 -12.55207182 25.1404281 -12.34375 21.578125 C-11.97227849 18.79208867 -11.14119538 16.55848642 -10 14 C-9.34 14 -8.68 14 -8 14 C-7.896875 12.9275 -7.79375 11.855 -7.6875 10.75 C-7.02797801 7.15260731 -6.54223809 5.54223809 -4 3 C-3.34 3 -2.68 3 -2 3 C-2 2.34 -2 1.68 -2 1 C-1.34 0.67 -0.68 0.34 0 0 Z " fill="#EA666F" transform="translate(242,278)"/>
<path d="M0 0 C0.33 0 0.66 0 1 0 C1.3582869 4.83687315 1.21389796 7.86104449 -1 12.1875 C-5.77207196 23.15817076 -3.82925938 37.99722789 -0.734375 49.1796875 C0.36602844 53.40570495 0.71541679 57.65274615 1 62 C-3.06428261 58.47913122 -3.71099988 54.04737688 -5 49 C-5.20882812 48.23558594 -5.41765625 47.47117187 -5.6328125 46.68359375 C-9.47920415 30.67502006 -6.66070085 14.82912481 0 0 Z " fill="#6ECAE3" transform="translate(257,302)"/>
<path d="M0 0 C8.33751906 7.2710922 10.37132389 21.89706343 11.18457031 32.37890625 C11.88109699 45.1869795 11.98020254 59.90670513 3 70 C2.64683988 65.05575834 3.69745956 62.32877603 6 58 C7.23487008 53.51767134 7.1280366 49.02994229 7.09765625 44.41796875 C7.0962413 43.60378983 7.09482635 42.7896109 7.09336853 41.95075989 C7.08779317 39.36296844 7.07524524 36.77526508 7.0625 34.1875 C7.05748181 32.42773563 7.05291946 30.66796989 7.04882812 28.90820312 C7.03783181 24.60543506 7.02058421 20.30273244 7 16 C6.01 15.67 5.02 15.34 4 15 C2.83203125 12.63671875 2.83203125 12.63671875 1.8125 9.6875 C1.46832031 8.72199219 1.12414062 7.75648438 0.76953125 6.76171875 C0 4 0 4 0 0 Z " fill="#48BEDE" transform="translate(359,295)"/>
<path d="M0 0 C7.74496901 -0.89365027 13.48918183 1.88315959 20 6 C20.99 7.485 20.99 7.485 22 9 C17.38 8.01 12.76 7.02 8 6 C8 5.34 8 4.68 8 4 C7.01 4 6.02 4 5 4 C5.22598877 4.53294678 5.45197754 5.06589355 5.68481445 5.61499023 C8.06005507 11.80320522 8.13038093 16.56317639 7.1875 23.0625 C7.07857422 23.92810547 6.96964844 24.79371094 6.85742188 25.68554688 C6.58965752 27.79273591 6.29740213 29.89678927 6 32 C5.01 32 4.02 32 3 32 C3.16048828 30.71029297 3.16048828 30.71029297 3.32421875 29.39453125 C4.21834005 20.57830295 3.35954633 13.49203061 1 5 C0.65144661 3.33644975 0.31267501 1.6706655 0 0 Z " fill="#DE192B" transform="translate(255,141)"/>
<path d="M0 0 C1.99890831 2.57330725 3.70726736 5.13182102 5.25 8 C7.25025661 11.66413373 9.32068373 15.27687963 11.4375 18.875 C14.74252881 24.52346519 17.90156844 30.2361707 21 36 C21.7172464 37.31781803 22.43470784 38.63551904 23.15234375 39.953125 C23.89352991 41.32275396 24.63441737 42.69254461 25.375 44.0625 C25.73327881 44.71839111 26.09155762 45.37428223 26.46069336 46.05004883 C29 50.77227907 29 50.77227907 29 53 C28.34 53 27.68 53 27 53 C27 52.34 27 51.68 27 51 C26.34 51 25.68 51 25 51 C24.67 49.68 24.34 48.36 24 47 C23.34 47 22.68 47 22 47 C21.649375 45.906875 21.29875 44.81375 20.9375 43.6875 C19.12854602 38.77873653 16.33387395 34.64331572 13.42578125 30.3203125 C12 28 12 28 12 26 C11.34 26 10.68 26 10 26 C9.80664062 25.21753906 9.61328125 24.43507812 9.4140625 23.62890625 C9.15367187 22.61699219 8.89328125 21.60507813 8.625 20.5625 C8.36976563 19.55316406 8.11453125 18.54382813 7.8515625 17.50390625 C7.27426046 14.84429676 7.27426046 14.84429676 5 14 C1.92248482 9.38372722 0 5.59134259 0 0 Z " fill="#E4545C" transform="translate(375,182)"/>
<path d="M0 0 C1.63129887 4.06285757 0.29968777 7.20102184 -0.9375 11.25 C-1.31777344 12.51328125 -1.69804687 13.7765625 -2.08984375 15.078125 C-2.39019531 16.04234375 -2.69054687 17.0065625 -3 18 C-3.66 18 -4.32 18 -5 18 C-5 18.99 -5 19.98 -5 21 C-5.66 21 -6.32 21 -7 21 C-7 21.66 -7 22.32 -7 23 C-7.66 23 -8.32 23 -9 23 C-9.40605469 23.81984375 -9.40605469 23.81984375 -9.8203125 24.65625 C-11.14419555 27.28648123 -12.49558105 29.89840157 -13.875 32.5 C-14.61363281 33.90765625 -14.61363281 33.90765625 -15.3671875 35.34375 C-16.99737538 37.99573029 -18.76400835 39.85583553 -21 42 C-21.515625 42.886875 -22.03125 43.77375 -22.5625 44.6875 C-24 47 -24 47 -27 48 C-25.39516194 43.33138019 -23.02509806 38.90741833 -20 35 C-19.34 35 -18.68 35 -18 35 C-17.87778076 34.41154297 -17.75556152 33.82308594 -17.62963867 33.21679688 C-16.9934337 30.97688172 -16.19612922 29.46961404 -14.92578125 27.53125 C-14.50804443 26.88309326 -14.09030762 26.23493652 -13.65991211 25.56713867 C-13.21526611 24.88498291 -12.77062012 24.20282715 -12.3125 23.5 C-7.54442383 16.04044675 -2.81519302 8.44557905 0 0 Z " fill="#E4656D" transform="translate(257,175)"/>
<path d="M0 0 C0.33 0 0.66 0 1 0 C1.8695326 16.09304175 0.03267894 29.71201848 -5 45 C-5.34417969 46.16402344 -5.68835938 47.32804687 -6.04296875 48.52734375 C-7.30650821 51.79191713 -9.03586166 52.26489463 -12 54 C-13.82629794 57.06680799 -13.82629794 57.06680799 -15 60 C-15.66 60 -16.32 60 -17 60 C-16.2236068 63.0745356 -16.2236068 63.0745356 -14 65 C-15.65 64.67 -17.3 64.34 -19 64 C-18.53198701 59.00786149 -16.08284263 54.87036007 -13 51 C-12.34 51 -11.68 51 -11 51 C-10.896875 50.278125 -10.79375 49.55625 -10.6875 48.8125 C-10 46 -10 46 -8.5859375 43.671875 C-0.87636182 30.68332878 -0.66029228 14.66543914 0 0 Z " fill="#E4515A" transform="translate(395,314)"/>
<path d="M0 0 C0.33 0.99 0.66 1.98 1 3 C-0.28965176 4.37562854 -1.62689293 5.70766393 -3 7 C-3.66 7 -4.32 7 -5 7 C-5.309375 8.299375 -5.309375 8.299375 -5.625 9.625 C-7.12569242 13.30851776 -8.74582253 15.0189085 -11.66015625 17.60546875 C-13.26322689 19.074282 -13.26322689 19.074282 -14 22 C-14.66 22.33 -15.32 22.66 -16 23 C-16.33 23.99 -16.66 24.98 -17 26 C-18.28965176 27.37562854 -19.62689293 28.70766393 -21 30 C-21.5775 30.5775 -22.155 31.155 -22.75 31.75 C-23.1625 32.1625 -23.575 32.575 -24 33 C-23.41393575 28.44938346 -21.52129867 24.90796977 -19.25 21 C-18.91484375 20.39671875 -18.5796875 19.7934375 -18.234375 19.171875 C-15.94094164 15.17574112 -13.30950698 12.24196602 -10 9 C-9.67 8.01 -9.34 7.02 -9 6 C-7.04690112 4.59886384 -5.04291182 3.26660533 -3 2 C-2.01 1.34 -1.02 0.68 0 0 Z " fill="#E44A57" transform="translate(347,104)"/>
<path d="M0 0 C1.02583019 2.65109127 1.10657945 3.73181837 0.0390625 6.41796875 C-0.42757813 7.33191406 -0.89421875 8.24585937 -1.375 9.1875 C-5.95737264 19.60314367 -6.08091348 31.12618771 -3 42 C-2.875 45.0625 -2.875 45.0625 -3 47 C-8.36379434 40.66097033 -8.90860643 33.03247971 -9 25 C-8.36730963 18.10066212 -6.06243458 12.16006957 -3 6 C-2.4225 4.824375 -1.845 3.64875 -1.25 2.4375 C-0.8375 1.633125 -0.425 0.82875 0 0 Z " fill="#E7747A" transform="translate(280,85)"/>
<path d="M0 0 C0.99 0 1.98 0 3 0 C4.5625 2.375 4.5625 2.375 6 5 C6.66 5.66 7.32 6.32 8 7 C8 7.99 8 8.98 8 10 C8.66 10 9.32 10 10 10 C10 10.66 10 11.32 10 12 C10.639375 12.12375 11.27875 12.2475 11.9375 12.375 C12.618125 12.58125 13.29875 12.7875 14 13 C14.33 13.66 14.66 14.32 15 15 C15.598125 15.12375 16.19625 15.2475 16.8125 15.375 C19.74389162 16.21254046 20.83272219 17.83272219 23 20 C25.94426551 22.0870097 28.96200994 24.05257048 32 26 C31.34 26.33 30.68 26.66 30 27 C18.84714196 22.68500968 6.59832846 14.9167405 1 4 C0.3125 1.6875 0.3125 1.6875 0 0 Z " fill="#6CC6E1" transform="translate(258,364)"/>
<path d="M0 0 C2.20175991 6.60527974 -1.03794756 14.17440517 -3.92578125 20.25 C-8.20729329 28.73052318 -13.09303721 36.54789163 -19 44 C-19.33 42.68 -19.66 41.36 -20 40 C-19.34 40 -18.68 40 -18 40 C-17.87625 39.38125 -17.7525 38.7625 -17.625 38.125 C-17 36 -17 36 -15 34 C-14.5359375 32.7315625 -14.5359375 32.7315625 -14.0625 31.4375 C-13.711875 30.633125 -13.36125 29.82875 -13 29 C-12.01 28.67 -11.02 28.34 -10 28 C-9.67 26.02 -9.34 24.04 -9 22 C-8.34 22 -7.68 22 -7 22 C-6.34 18.7 -5.68 15.4 -5 12 C-4.34 12 -3.68 12 -3 12 C-3.061875 11.319375 -3.12375 10.63875 -3.1875 9.9375 C-2.94131737 6.08063875 -1.64197838 3.48920406 0 0 Z " fill="#E3505C" transform="translate(418,318)"/>
<path d="M0 0 C0 3.91225923 -1.33326228 5.10218661 -3.6875 8.1875 C-6.25926361 11.61044909 -8.686709 15.00749111 -10.875 18.6875 C-11.57625 19.780625 -12.2775 20.87375 -13 22 C-13.66 22 -14.32 22 -15 22 C-15.268125 22.72574219 -15.53625 23.45148438 -15.8125 24.19921875 C-16.98670381 26.96864024 -18.3394324 29.30919434 -20 31.8125 C-20.515625 32.60269531 -21.03125 33.39289063 -21.5625 34.20703125 C-22.036875 34.79871094 -22.51125 35.39039063 -23 36 C-23.66 36 -24.32 36 -25 36 C-25.33 37.32 -25.66 38.64 -26 40 C-27.33332095 37.3333581 -26.67102033 35.83319697 -26 33 C-25.01 33 -24.02 33 -23 33 C-22.7834375 31.824375 -22.7834375 31.824375 -22.5625 30.625 C-22 28 -22 28 -21 26 C-20.34 26 -19.68 26 -19 26 C-19 25.34 -19 24.68 -19 24 C-18.34 24 -17.68 24 -17 24 C-16.67 22.35 -16.34 20.7 -16 19 C-15.34 19 -14.68 19 -14 19 C-13.67 18.01 -13.34 17.02 -13 16 C-12.34 16 -11.68 16 -11 16 C-11 15.01 -11 14.02 -11 13 C-10.34 12.67 -9.68 12.34 -9 12 C-8.30341637 10.34561387 -7.63903117 8.67745682 -7 7 C-6.34 6.01 -5.68 5.02 -5 4 C-4.34 4 -3.68 4 -3 4 C-3 3.34 -3 2.68 -3 2 C-2.01 1.34 -1.02 0.68 0 0 Z " fill="#E6515E" transform="translate(270,238)"/>
<path d="M0 0 C0 3 0 3 -1.35546875 4.4296875 C-1.96003906 4.90664063 -2.56460937 5.38359375 -3.1875 5.875 C-5.51649921 7.76642966 -7.61862705 9.61862705 -9.75 11.75 C-12 14 -12 14 -15 16 C-17.1875 15.625 -17.1875 15.625 -19 15 C-19 12 -19 12 -17.6875 10.625 C-17.130625 10.08875 -16.57375 9.5525 -16 9 C-14.96642853 7.35394174 -13.95939668 5.69036558 -13 4 C-12.01 5.32 -11.02 6.64 -10 8 C-9.649375 7.05125 -9.29875 6.1025 -8.9375 5.125 C-7 2 -7 2 -3.3125 0.625 C-2.219375 0.41875 -1.12625 0.2125 0 0 Z " fill="#E04E57" transform="translate(397,362)"/>
<path d="M0 0 C0.99 0.33 1.98 0.66 3 1 C-4.69342295 12.10688705 -14.47470212 19.87327294 -27 25 C-27.66 25 -28.32 25 -29 25 C-29 24.34 -29 23.68 -29 23 C-27.6078125 22.319375 -27.6078125 22.319375 -26.1875 21.625 C-22.96078611 20.0578367 -22.96078611 20.0578367 -20 18 C-19.01 18 -18.02 18 -17 18 C-17 17.34 -17 16.68 -17 16 C-14 14 -14 14 -11 14 C-10.67 12.68 -10.34 11.36 -10 10 C-9.01 10 -8.02 10 -7 10 C-7 9.34 -7 8.68 -7 8 C-6.34 8 -5.68 8 -5 8 C-4.731875 7.4225 -4.46375 6.845 -4.1875 6.25 C-2.98280141 3.9674132 -1.59201885 2.0262058 0 0 Z " fill="#63C6DE" transform="translate(359,366)"/>
<path d="M0 0 C1.1503442 13.22895831 -8.78191996 26.61915908 -16 37 C-16.33 37 -16.66 37 -17 37 C-17 35.35 -17 33.7 -17 32 C-16.34 32 -15.68 32 -15 32 C-14.34 30.02 -13.68 28.04 -13 26 C-12.34 26 -11.68 26 -11 26 C-11 25.01 -11 24.02 -11 23 C-10.34 23 -9.68 23 -9 23 C-8.9175 22.236875 -8.835 21.47375 -8.75 20.6875 C-7.89416701 16.47965449 -6.48025977 12.68229094 -4.9375 8.68359375 C-3.92882772 6.02225955 -3.92882772 6.02225955 -3.5 3.22265625 C-3.335 2.48917969 -3.17 1.75570312 -3 1 C-1 0 -1 0 0 0 Z " fill="#E04F55" transform="translate(288,201)"/>
<path d="M0 0 C2.16796875 -0.00390625 2.16796875 -0.00390625 5 1 C7.11557967 3.47978073 8.68810974 6.24448371 10.3125 9.0625 C10.9940918 10.20041992 10.9940918 10.20041992 11.68945312 11.36132812 C12.80764604 13.23282995 13.91015891 15.11189393 15 17 C14.34 17.33 13.68 17.66 13 18 C10.08156555 15.373409 8.05482685 12.33023661 6 9 C6 8.34 6 7.68 6 7 C4.68 7 3.36 7 2 7 C2 6.34 2 5.68 2 5 C1.21625 5.66 0.4325 6.32 -0.375 7 C-3 9 -3 9 -5 9 C-3.7508258 5.54074837 -2.32472205 2.85306797 0 0 Z " fill="#5FC5DC" transform="translate(308,223)"/>
<path d="M0 0 C0 3.58389085 -0.99855595 5.82312555 -2.375 9.125 C-2.81585938 10.20007813 -3.25671875 11.27515625 -3.7109375 12.3828125 C-5 15 -5 15 -7 16 C-7.33 16.99 -7.66 17.98 -8 19 C-8.45375 19.433125 -8.9075 19.86625 -9.375 20.3125 C-11.2220601 22.0354055 -11.2220601 22.0354055 -12.3125 25 C-14.3545556 28.63032106 -16.19819833 29.47927933 -20 31 C-18.57895328 28.00152342 -16.92952099 25.30364787 -15.0625 22.5625 C-13.47374986 20.21191545 -11.93360678 17.88657825 -10.5 15.4375 C-8.66241974 12.45143208 -6.55227803 9.7253801 -4.4296875 6.9375 C-2.78793402 4.71261003 -1.35523183 2.40930102 0 0 Z " fill="#5EC4DF" transform="translate(296,241)"/>
<path d="M0 0 C-0.27736364 4.67138758 -0.61493889 9.33636296 -1 14 C-1.08870361 15.08958008 -1.08870361 15.08958008 -1.17919922 16.20117188 C-1.3680721 18.38690687 -1.58602448 20.56787108 -1.8125 22.75 C-1.87034668 23.4409375 -1.92819336 24.131875 -1.98779297 24.84375 C-2.20703125 26.796875 -2.20703125 26.796875 -3 30 C-5.07421875 31.453125 -5.07421875 31.453125 -7 32 C-7.99 31.34 -8.98 30.68 -10 30 C-8.35 30 -6.7 30 -5 30 C-5.01160156 28.71222656 -5.02320313 27.42445313 -5.03515625 26.09765625 C-5.0445327 24.41927228 -5.05363305 22.74088674 -5.0625 21.0625 C-5.07087891 20.21236328 -5.07925781 19.36222656 -5.08789062 18.48632812 C-5.09111328 17.67744141 -5.09433594 16.86855469 -5.09765625 16.03515625 C-5.10289307 15.2862915 -5.10812988 14.53742676 -5.11352539 13.76586914 C-5 12 -5 12 -4 11 C-3.71778828 8.41977858 -3.55179803 5.83969815 -3.37890625 3.25 C-3.25386719 2.5075 -3.12882812 1.765 -3 1 C-1 0 -1 0 0 0 Z " fill="#E7646F" transform="translate(303,117)"/>
<path d="M0 0 C8.92980209 8.16439048 12.03989335 17.00948833 12.9140625 28.9765625 C13.03104201 33.09211442 12.61023624 36.93175842 12 41 C11.67 41 11.34 41 11 41 C10.98541748 40.41508789 10.97083496 39.83017578 10.95581055 39.22753906 C10.8811643 36.56770603 10.78456101 33.90910552 10.6875 31.25 C10.66494141 30.32960938 10.64238281 29.40921875 10.61914062 28.4609375 C10.58369141 27.57148437 10.54824219 26.68203125 10.51171875 25.765625 C10.48553467 24.94868164 10.45935059 24.13173828 10.43237305 23.29003906 C9.91013112 20.52401463 8.7847915 19.1397412 7 17 C6.19140625 15.10546875 6.19140625 15.10546875 5.5625 13.1875 C4.54900248 10.30334483 3.37187117 7.75506616 1.8125 5.125 C0 2 0 2 0 0 Z " fill="#E56E76" transform="translate(303,41)"/>
<path d="M0 0 C0.33 0 0.66 0 1 0 C4.17481595 12.64764079 2.95734358 27.98915213 -2 40 C-4.140625 42.91015625 -4.140625 42.91015625 -6 45 C-6.24075011 41.62949841 -6.24510022 39.47852901 -4.6875 36.4375 C0.99768607 24.85656541 0.33821963 12.56423286 0 0 Z " fill="#7BCFE8" transform="translate(368,320)"/>
<path d="M0 0 C0.33 0 0.66 0 1 0 C1 10.23 1 20.46 1 31 C1.66 31 2.32 31 3 31 C5.29612756 40.41002278 5.29612756 40.41002278 5 45 C-3.48245311 32.27632033 -1.9537577 14.51362861 0 0 Z " fill="#DE3B43" transform="translate(203,288)"/>
<path d="M0 0 C1.02738281 0.0721875 2.05476563 0.144375 3.11328125 0.21875 C11.08786254 0.75957932 19.00182208 1.15250763 27 1 C27 0.67 27 0.34 27 0 C31.29 0 35.58 0 40 0 C31.5144202 5.6570532 18.86842243 5.04771629 9.21484375 3.32421875 C6.12102213 2.61388539 3.05720717 1.85317409 0 1 C0 0.67 0 0.34 0 0 Z " fill="#5FC4DB" transform="translate(290,391)"/>
<path d="M0 0 C2.69666661 3.27242549 5.08174053 6.58314639 7.3125 10.1875 C10.70166273 15.58668564 14.29748299 20.81197465 18 26 C17.01 26.33 16.02 26.66 15 27 C13.86863414 25.44210317 12.74517679 23.87846143 11.625 22.3125 C10.99851562 21.44238281 10.37203125 20.57226562 9.7265625 19.67578125 C8.10584157 17.16403048 7.00141912 14.80700813 6 12 C5.34 12 4.68 12 4 12 C-0.57142857 4.71428571 -0.57142857 4.71428571 0 0 Z " fill="#58C2DC" transform="translate(330,251)"/>
<path d="M0 0 C0.33 0.66 0.66 1.32 1 2 C-0.14453125 4.390625 -0.14453125 4.390625 -1.8125 7.25 C-3.61645278 10.41730879 -5.04874723 13.14880732 -6.1875 16.625 C-6.455625 17.40875 -6.72375 18.1925 -7 19 C-7.99 19.33 -8.98 19.66 -10 20 C-10.66 20.99 -11.32 21.98 -12 23 C-11.41196203 19.97580475 -10.77321882 16.98241547 -10 14 C-9.34 14 -8.68 14 -8 14 C-7.896875 12.9275 -7.79375 11.855 -7.6875 10.75 C-7.02797801 7.15260731 -6.54223809 5.54223809 -4 3 C-3.34 3 -2.68 3 -2 3 C-2 2.34 -2 1.68 -2 1 C-1.34 0.67 -0.68 0.34 0 0 Z " fill="#E44150" transform="translate(242,278)"/>
<path d="M0 0 C1.07057711 3.47147272 1.10055167 6.64126084 1.0625 10.26171875 C1.05476563 11.46248047 1.04703125 12.66324219 1.0390625 13.90039062 C1.02617187 15.15013672 1.01328125 16.39988281 1 17.6875 C0.97462411 20.17053065 0.95354594 22.65361028 0.9375 25.13671875 C0.92589844 26.23717529 0.91429687 27.33763184 0.90234375 28.47143555 C0.71087999 30.93731033 0.71087999 30.93731033 2 32 C2.07179964 33.51928038 2.08392007 35.04167482 2.0625 36.5625 C2.05347656 37.38878906 2.04445313 38.21507812 2.03515625 39.06640625 C2.02355469 39.70449219 2.01195312 40.34257812 2 41 C-3.04320881 35.95679119 -2.21242321 26.28787109 -2.25 19.5 C-2.22782926 12.83695424 -1.57127723 6.49554782 0 0 Z " fill="#E55C64" transform="translate(322,137)"/>
<path d="M0 0 C4.43090471 1.20842856 6.98112756 2.51668565 10 6 C7.36 5.34 4.72 4.68 2 4 C2 10.6 2 17.2 2 24 C1.34 24 0.68 24 0 24 C-0.1958691 20.18788097 -0.38029565 16.37529466 -0.5625 12.5625 C-0.61857422 11.47388672 -0.67464844 10.38527344 -0.73242188 9.26367188 C-0.78076172 8.22919922 -0.82910156 7.19472656 -0.87890625 6.12890625 C-0.9260376 5.17056885 -0.97316895 4.21223145 -1.02172852 3.22485352 C-1 1 -1 1 0 0 Z " fill="#E46870" transform="translate(293,35)"/>
<path d="M0 0 C-0.51085812 6.43681228 -1.72942897 11.95942424 -4 18 C-5.20220203 14.46905698 -4.79532349 11.87101018 -4.0625 8.25 C-3.86785156 7.26515625 -3.67320312 6.2803125 -3.47265625 5.265625 C-3.31667969 4.51796875 -3.16070312 3.7703125 -3 3 C-3.90363281 3.3609375 -4.80726563 3.721875 -5.73828125 4.09375 C-6.91777344 4.5578125 -8.09726562 5.021875 -9.3125 5.5 C-10.48425781 5.9640625 -11.65601563 6.428125 -12.86328125 6.90625 C-16 8 -16 8 -19 8 C-16.15378158 5.75852083 -13.28521656 3.96606643 -10.0625 2.3125 C-9.22847656 1.87550781 -8.39445312 1.43851562 -7.53515625 0.98828125 C-4.82851229 -0.06685114 -2.87731627 -0.19044848 0 0 Z " fill="#E7737C" transform="translate(367,95)"/>
<path d="M0 0 C3.77574317 0.94393579 4.91534396 1.8790628 7.1875 5.125 C9.17710631 8.95116598 10.11441524 12.79347239 11 17 C11.66 17 12.32 17 13 17 C13.33 18.65 13.66 20.3 14 22 C10.03632559 18.29681573 7.08214141 14.4505563 4.1875 9.875 C3.57745117 8.94494141 3.57745117 8.94494141 2.95507812 7.99609375 C0 3.37723214 0 3.37723214 0 0 Z " fill="#E64753" transform="translate(339,207)"/>
<path d="M0 0 C0.33 0 0.66 0 1 0 C0.48517081 5.852795 -0.45357192 11.3297637 -2 17 C-2.66 17 -3.32 17 -4 17 C-4.04125 17.928125 -4.0825 18.85625 -4.125 19.8125 C-5 23 -5 23 -8.0625 24.875 C-9.5165625 25.431875 -9.5165625 25.431875 -11 26 C-9.50697368 22.1495637 -7.82092304 18.42358967 -6.0625 14.6875 C-3.81373381 9.84907886 -1.77515193 5.02959712 0 0 Z " fill="#E35861" transform="translate(292,59)"/>
<path d="M0 0 C0.6875 1.6875 0.6875 1.6875 1 4 C-0.375 6.5 -0.375 6.5 -2 9 C-2.69579454 11.19130534 -2.69579454 11.19130534 -3 13 C-3.66 13 -4.32 13 -5 13 C-5 13.66 -5 14.32 -5 15 C-5.66 15 -6.32 15 -7 15 C-6.9175 15.721875 -6.835 16.44375 -6.75 17.1875 C-7.07426559 20.83548794 -8.57319587 22.34568298 -11 25 C-11.66353349 19.04715667 -9.43557444 15.2762727 -6.625 10.25 C-6.2125 9.48300781 -5.8 8.71601563 -5.375 7.92578125 C-2.32194136 2.32194136 -2.32194136 2.32194136 0 0 Z " fill="#E2565F" transform="translate(224,231)"/>
<path d="M0 0 C0.66 0 1.32 0 2 0 C4.06854908 3.99443961 6.01565393 7.87698197 7.5 12.125 C8.81324437 15.81804631 10.80874629 18.75089967 13 22 C13 22.99 13 23.98 13 25 C13.66 25 14.32 25 15 25 C14.67 26.32 14.34 27.64 14 29 C10.52502062 23.78753093 7.57477262 18.3959984 4.75 12.8125 C4.22019531 11.77899414 4.22019531 11.77899414 3.6796875 10.72460938 C1.90091694 7.16362102 0.52750166 3.99504936 0 0 Z " fill="#EA6A75" transform="translate(324,178)"/>
<path d="M0 0 C0.33 0 0.66 0 1 0 C0.69716964 5.04717265 -0.19740511 7.72504329 -3.65625 11.4453125 C-5.89864569 14.03971217 -7.37492635 16.99060436 -9 20 C-9.66 20 -10.32 20 -11 20 C-11 20.99 -11 21.98 -11 23 C-11.66 23 -12.32 23 -13 23 C-10.44376616 15.79606826 -6.32390414 9.26220599 -2 3 C-1.34 2.01 -0.68 1.02 0 0 Z " fill="#56C3DC" transform="translate(271,278)"/>
<path d="M0 0 C0.66 0 1.32 0 2 0 C1.00172721 7.46983429 -1.52871242 13.72010526 -4.6015625 20.5703125 C-6.39772788 24.97543318 -7.3716642 29.29831488 -8 34 C-8.33 34 -8.66 34 -9 34 C-9.76820209 24.01337287 -5.62378917 15.22021316 -1.83203125 6.15625 C-1.0456652 4.11834361 -0.47897281 2.12876803 0 0 Z " fill="#E9777F" transform="translate(312,82)"/>
<path d="M0 0 C0.99 0.495 0.99 0.495 2 1 C2.33 1.99 2.66 2.98 3 4 C3.99588765 5.00409551 4.99628026 6.00373363 6 7 C7.203125 8.97265625 7.203125 8.97265625 8.25 11.0625 C8.78367188 12.10083984 8.78367188 12.10083984 9.328125 13.16015625 C9.54984375 13.76730469 9.7715625 14.37445313 10 15 C9.67 15.66 9.34 16.32 9 17 C8.34 16.67 7.68 16.34 7 16 C7 15.34 7 14.68 7 14 C6.360625 13.773125 5.72125 13.54625 5.0625 13.3125 C3 12 3 12 2.25 9.375 C2.1675 8.59125 2.085 7.8075 2 7 C1.34 7 0.68 7 0 7 C0 4.69 0 2.38 0 0 Z " fill="#E23341" transform="translate(230,347)"/>
<path d="M0 0 C0.33 0 0.66 0 1 0 C1.45127331 6.09218971 0.39260128 10.07939706 -2.04296875 15.65625 C-3.16548544 18.40527045 -3.68966883 21.05185388 -4 24 C-4.33 24 -4.66 24 -5 24 C-5.50313121 15.24179002 -4.09338635 7.79523139 0 0 Z " fill="#5AC6DB" transform="translate(257,302)"/>
<path d="M0 0 C0.33 0 0.66 0 1 0 C1.4356984 12.96705462 1.76327569 24.73031216 -3 37 C-3.66 37 -4.32 37 -5 37 C-4.46544994 34.26557083 -3.89704507 31.5456554 -3.28125 28.828125 C-1.18113797 19.20961189 -0.34893655 9.8303848 0 0 Z " fill="#EB7C82" transform="translate(395,314)"/>
<path d="M0 0 C0.99 0 1.98 0 3 0 C2.690625 1.134375 2.38125 2.26875 2.0625 3.4375 C1.06176978 7.35644353 0.62023551 11.18506751 0.34375 15.21484375 C0.2303125 15.80394531 0.116875 16.39304687 0 17 C-0.66 17.33 -1.32 17.66 -2 18 C-2.8723412 15.00519083 -3.10829766 12.36424089 -3.0625 9.25 C-3.05347656 8.45078125 -3.04445313 7.6515625 -3.03515625 6.828125 C-3.02355469 6.22484375 -3.01195312 5.6215625 -3 5 C-2.34 5 -1.68 5 -1 5 C-0.67 3.35 -0.34 1.7 0 0 Z " fill="#E02B3A" transform="translate(303,100)"/>
<path d="M0 0 C0.66 0.33 1.32 0.66 2 1 C2 7.6 2 14.2 2 21 C1.34 21 0.68 21 0 21 C-0.33 22.98 -0.66 24.96 -1 27 C-1.33 27 -1.66 27 -2 27 C-1.84660156 25.88625 -1.69320313 24.7725 -1.53515625 23.625 C-0.92693771 18.75925164 -0.66688586 13.89607197 -0.4375 9 C-0.39431641 8.12988281 -0.35113281 7.25976562 -0.30664062 6.36328125 C-0.20175782 4.24231781 -0.10049925 2.12117567 0 0 Z " fill="#DD2E3A" transform="translate(312,61)"/>
<path d="M0 0 C0.33 0 0.66 0 1 0 C1.04898438 1.01578125 1.09796875 2.0315625 1.1484375 3.078125 C1.93354646 18.83467522 1.93354646 18.83467522 6 34 C2.63423004 32.31711502 2.04977807 29.2992893 0.8203125 25.875 C-0.96789807 17.42783386 -0.29555626 8.59045642 0 0 Z " fill="#E9848B" transform="translate(228,318)"/>
<path d="M0 0 C1.125 1.5625 1.125 1.5625 2 4 C1.125 7.75 1.125 7.75 0 11 C-1.65 11.33 -3.3 11.66 -5 12 C-5.6875 10.1875 -5.6875 10.1875 -6 8 C-4.75 6.5625 -4.75 6.5625 -3 5 C-1.96642853 3.35394174 -0.95939668 1.69036558 0 0 Z " fill="#DD343F" transform="translate(384,366)"/>
<path d="M0 0 C0.99 0 1.98 0 3 0 C4.5625 2.375 4.5625 2.375 6 5 C6.66 5.66 7.32 6.32 8 7 C8 7.99 8 8.98 8 10 C8.66 10 9.32 10 10 10 C10.33 10.99 10.66 11.98 11 13 C11.66 13.33 12.32 13.66 13 14 C12.67 14.66 12.34 15.32 12 16 C1.33513289 7.20971761 1.33513289 7.20971761 0 0 Z " fill="#6DCDE2" transform="translate(258,364)"/>
<path d="M0 0 C2.23051073 2.23051073 2.46271444 3.75197463 3.22265625 6.72265625 C4.62728103 10.83771278 6.80630038 14.60098689 8.85546875 18.42578125 C9.23316406 19.27527344 9.61085938 20.12476563 10 21 C9.67 21.66 9.34 22.32 9 23 C8.67 22.01 8.34 21.02 8 20 C7.34 20 6.68 20 6 20 C6 19.34 6 18.68 6 18 C5.34 18 4.68 18 4 18 C3.32451422 15.94037148 2.65995688 13.87715678 2 11.8125 C1.62875 10.66394531 1.2575 9.51539063 0.875 8.33203125 C0.09369447 5.35679188 -0.18363306 3.04716104 0 0 Z " fill="#E7737B" transform="translate(365,159)"/>
<path d="M0 0 C0.33 0 0.66 0 1 0 C2.9078547 7.65541695 4.48400816 15.1177798 5 23 C0.39377717 19.30240195 0.60631556 13.52653146 0 8 C-0.12724381 5.30325225 -0.10387435 2.70073306 0 0 Z " fill="#50C3E2" transform="translate(253,341)"/>
<path d="M0 0 C1.63129887 4.06285757 0.29968777 7.20102184 -0.9375 11.25 C-1.31777344 12.51328125 -1.69804687 13.7765625 -2.08984375 15.078125 C-2.54037109 16.52445313 -2.54037109 16.52445313 -3 18 C-3.66 18 -4.32 18 -5 18 C-5 18.99 -5 19.98 -5 21 C-5.66 21 -6.32 21 -7 21 C-7 21.66 -7 22.32 -7 23 C-7.66 22.67 -8.32 22.34 -9 22 C-8.505 20.515 -8.505 20.515 -8 19 C-7.34 19 -6.68 19 -6 19 C-5.90203125 18.29875 -5.8040625 17.5975 -5.703125 16.875 C-4.70025836 10.51198407 -3.17338469 5.60631294 0 0 Z " fill="#E44B57" transform="translate(257,175)"/>
<path d="M0 0 C0.33 0.66 0.66 1.32 1 2 C1.66 2 2.32 2 3 2 C3 8.93 3 15.86 3 23 C2.01 23 1.02 23 0 23 C0.08378906 22.09378906 0.16757812 21.18757813 0.25390625 20.25390625 C0.83554612 13.29631537 1.07121732 6.90340054 0 0 Z " fill="#E96670" transform="translate(258,150)"/>
<path d="M0 0 C0.90837643 2.72512929 0.98701898 4.76587991 0.9375 7.6875 C0.87113705 11.63978221 1.61540687 15.12204347 2.5546875 18.9453125 C3.07231897 21.33368225 3.15717405 23.56380218 3 26 C-0.90039614 21.08210921 -1.15767214 17.12058046 -1.125 11 C-1.12886719 10.27554688 -1.13273437 9.55109375 -1.13671875 8.8046875 C-1.13081927 5.60717121 -1.01805798 3.05417393 0 0 Z " fill="#E44350" transform="translate(274,106)"/>
<path d="M0 0 C5.41888759 6.98504007 9.12113147 15.09371053 13 23 C12.34 23.33 11.68 23.66 11 24 C10.73445313 23.36191406 10.46890625 22.72382813 10.1953125 22.06640625 C9.84210938 21.24011719 9.48890625 20.41382813 9.125 19.5625 C8.77695312 18.73878906 8.42890625 17.91507813 8.0703125 17.06640625 C7.1755063 14.84253285 7.1755063 14.84253285 5 14 C1.92248482 9.38372722 0 5.59134259 0 0 Z " fill="#E77178" transform="translate(375,182)"/>
<path d="M0 0 C1.485 0.99 1.485 0.99 3 2 C3 2.99 3 3.98 3 5 C3.99 5.33 4.98 5.66 6 6 C7.640625 8.58203125 7.640625 8.58203125 9.25 11.8125 C9.79140625 12.87082031 10.3328125 13.92914063 10.890625 15.01953125 C12.00903639 18.02427735 12.20681097 19.10225041 11 22 C10 21 10 21 9.9375 18.4375 C9.958125 17.633125 9.97875 16.82875 10 16 C9.34 16 8.68 16 8 16 C7.73445313 15.36191406 7.46890625 14.72382813 7.1953125 14.06640625 C6.84210938 13.24011719 6.48890625 12.41382813 6.125 11.5625 C5.60292969 10.32693359 5.60292969 10.32693359 5.0703125 9.06640625 C4.1755063 6.84253285 4.1755063 6.84253285 2 6 C2 5.34 2 4.68 2 4 C1.34 4 0.68 4 0 4 C0 2.68 0 1.36 0 0 Z " fill="#E56670" transform="translate(278,150)"/>
<path d="M0 0 C3.0171926 2.55573961 4.2432533 5.38380793 5.75 9 C6.19859375 10.051875 6.6471875 11.10375 7.109375 12.1875 C8 15 8 15 7 18 C7 17.34 7 16.68 7 16 C6.01 15.67 5.02 15.34 4 15 C2.83203125 12.63671875 2.83203125 12.63671875 1.8125 9.6875 C1.46832031 8.72199219 1.12414062 7.75648438 0.76953125 6.76171875 C0 4 0 4 0 0 Z " fill="#69C7E1" transform="translate(359,295)"/>
<path d="M0 0 C2.25 0 2.25 0 5 1 C6.79279124 3.48318289 8.12052606 6.06461296 9 9 C8.67 9.99 8.34 10.98 8 12 C4.02502456 8.59287819 2.13206212 4.67239145 0 0 Z " fill="#E7414C" transform="translate(376,265)"/>
<path d="M0 0 C3.82329121 3.42083951 5.77599069 5.9926892 7 11 C7 11.66 7 12.32 7 13 C7.66 13 8.32 13 9 13 C9 13.66 9 14.32 9 15 C7.171875 14.87109375 7.171875 14.87109375 5 14 C3.515625 11.34765625 3.515625 11.34765625 2.25 8.0625 C1.82203125 6.98097656 1.3940625 5.89945312 0.953125 4.78515625 C0 2 0 2 0 0 Z " fill="#E8505E" transform="translate(383,276)"/>
<path d="M0 0 C3 1 3 1 5 3 C5.66 2.67 6.32 2.34 7 2 C7.226875 3.093125 7.45375 4.18625 7.6875 5.3125 C9.17913222 9.50327624 10.16415357 10.08207678 14 12 C14 12.66 14 13.32 14 14 C9.80614912 12.64359718 7.61163385 10.88833018 4.75 7.5625 C4.06421875 6.78003906 3.3784375 5.99757812 2.671875 5.19140625 C1 3 1 3 0 0 Z " fill="#E64D56" transform="translate(277,132)"/>
<path d="M0 0 C0.33 0 0.66 0 1 0 C2.40952475 8.32219399 3.73474149 16.65467788 5 25 C3 24 3 24 1.9375 21.4375 C-0.01423952 14.28112178 -0.13585366 7.3662872 0 0 Z " fill="#E55D67" transform="translate(361,141)"/>
<path d="M0 0 C0.15886288 8.26086957 0.15886288 8.26086957 -1 11 C-1.99 11.33 -2.98 11.66 -4 12 C-4 9.36 -4 6.72 -4 4 C-5.32 3.34 -6.64 2.68 -8 2 C-5.09399739 0.74335022 -3.20395416 0 0 0 Z " fill="#DD1B2C" transform="translate(364,98)"/>
<path d="M0 0 C0.3129725 5.2162083 -0.14941571 8.56575777 -3 13 C-3.99 13.33 -4.98 13.66 -6 14 C-5.55187982 11.8520106 -5.09121652 9.70663439 -4.625 7.5625 C-4.36976563 6.36753906 -4.11453125 5.17257813 -3.8515625 3.94140625 C-3.43003906 2.48541016 -3.43003906 2.48541016 -3 1 C-1 0 -1 0 0 0 Z " fill="#E24953" transform="translate(288,201)"/>
<path d="M0 0 C0.99 0 1.98 0 3 0 C2.07692308 9.07692308 2.07692308 9.07692308 0 13 C-0.99 13.66 -1.98 14.32 -3 15 C-2.01 10.05 -1.02 5.1 0 0 Z " fill="#DD2131" transform="translate(258,173)"/>
<path d="M0 0 C0.6875 1.6875 0.6875 1.6875 1 4 C-0.3125 6.5625 -0.3125 6.5625 -2 9 C-2.99 10.485 -2.99 10.485 -4 12 C-4.66 12 -5.32 12 -6 12 C-5.2236068 15.0745356 -5.2236068 15.0745356 -3 17 C-4.65 16.67 -6.3 16.34 -8 16 C-7.53198701 11.00786149 -5.08284263 6.87036007 -2 3 C-1.34 3 -0.68 3 0 3 C0 2.01 0 1.02 0 0 Z " fill="#F09196" transform="translate(384,362)"/>
<path d="M0 0 C3.58686137 3.38759129 6.53560745 6.71013148 9 11 C9 12.32 9 13.64 9 15 C7.35 15 5.7 15 4 15 C4.99 14.67 5.98 14.34 7 14 C7 13.01 7 12.02 7 11 C6.34 11 5.68 11 5 11 C4.16151196 9.54462432 3.32936066 8.08559627 2.5 6.625 C1.80390625 5.40683594 1.80390625 5.40683594 1.09375 4.1640625 C0 2 0 2 0 0 Z " fill="#EA7C82" transform="translate(240,365)"/>
<path d="M0 0 C0.33 0 0.66 0 1 0 C1 1.65 1 3.3 1 5 C1.66 5 2.32 5 3 5 C5.29612756 14.41002278 5.29612756 14.41002278 5 19 C0.87232954 12.8084943 -0.39590347 7.39019811 0 0 Z " fill="#E55E67" transform="translate(203,314)"/>
<path d="M0 0 C0.66 1.65 1.32 3.3 2 5 C1.01 5 0.02 5 -1 5 C-1 4.34 -1 3.68 -1 3 C-1.78375 3.66 -2.5675 4.32 -3.375 5 C-6 7 -6 7 -8 7 C-6.4365884 2.43002763 -5.27390657 0 0 0 Z " fill="#47BDDE" transform="translate(311,225)"/>
<path d="M0 0 C0.33 0 0.66 0 1 0 C1.49152542 6.38983051 1.49152542 6.38983051 -0.8125 9.25 C-1.534375 9.8275 -2.25625 10.405 -3 11 C-3.5775 11.5775 -4.155 12.155 -4.75 12.75 C-5.36875 13.36875 -5.36875 13.36875 -6 14 C-5.41892368 10.2397015 -4.34800504 7.46964968 -2.4375 4.1875 C-1.98246094 3.39730469 -1.52742188 2.60710937 -1.05859375 1.79296875 C-0.53458984 0.90544922 -0.53458984 0.90544922 0 0 Z " fill="#E9636D" transform="translate(329,123)"/>
<path d="M0 0 C5.53846154 0.61538462 5.53846154 0.61538462 7.875 2.5625 C8.431875 3.2740625 8.431875 3.2740625 9 4 C8.67 4.66 8.34 5.32 8 6 C5.525 5.01 5.525 5.01 3 4 C2.67 5.98 2.34 7.96 2 10 C1.67 10 1.34 10 1 10 C0.67 6.7 0.34 3.4 0 0 Z " fill="#DF1929" transform="translate(295,39)"/>
<path d="M0 0 C4.42857143 5.14285714 4.42857143 5.14285714 5 9 C5.66 9 6.32 9 7 9 C7.66 10.65 8.32 12.3 9 14 C5.11236447 12.70412149 3.08363677 10.42474116 1 7 C0.1875 3.125 0.1875 3.125 0 0 Z " fill="#60C7DE" transform="translate(348,278)"/>
<path d="M0 0 C8.57142857 -0.28571429 8.57142857 -0.28571429 12 2 C8.67465243 3.10844919 6.37817425 2.84454356 3 2 C3 3.65 3 5.3 3 7 C0 3.375 0 3.375 0 0 Z " fill="#EA777E" transform="translate(255,141)"/>
<path d="M0 0 C0.33 0.99 0.66 1.98 1 3 C1.66 3 2.32 3 3 3 C5.81573751 8.96273825 4.75822476 14.6677986 4 21 C3.67 21 3.34 21 3 21 C3 16.38 3 11.76 3 7 C2.34 7 1.68 7 1 7 C0.67 4.69 0.34 2.38 0 0 Z " fill="#E22B3B" transform="translate(258,145)"/>
<path d="M0 0 C2.75 -0.25 2.75 -0.25 6 0 C8.375 2 8.375 2 10 4 C7.36 3.34 4.72 2.68 2 2 C2 4.64 2 7.28 2 10 C1.67 10 1.34 10 1 10 C0.67 6.7 0.34 3.4 0 0 Z " fill="#E14E58" transform="translate(293,37)"/>
<path d="M0 0 C3.0927781 2.06185207 3.68076198 2.90369802 5.1875 6.125 C5.53167969 6.84945312 5.87585938 7.57390625 6.23046875 8.3203125 C6.61138672 9.15175781 6.61138672 9.15175781 7 10 C5.68 10.33 4.36 10.66 3 11 C2.49632243 9.54293274 1.99717444 8.08429904 1.5 6.625 C1.2215625 5.81289062 0.943125 5.00078125 0.65625 4.1640625 C0 2 0 2 0 0 Z " fill="#64C7E0" transform="translate(323,241)"/>
<path d="M0 0 C2.54344286 2.27301934 3.87616437 4.45086481 5.25 7.5625 C5.60578125 8.34753906 5.9615625 9.13257813 6.328125 9.94140625 C7 12 7 12 6 14 C3.3522659 12.67613295 3.0592562 11.36742791 1.875 8.6875 C1.52179688 7.90761719 1.16859375 7.12773437 0.8046875 6.32421875 C0 4 0 4 0 0 Z " fill="#E4787F" transform="translate(404,235)"/>
<path d="M0 0 C2.25 0.0625 2.25 0.0625 5 1 C6.67849824 3.2308475 7.75999263 5.47405906 9 8 C7.125 7.8125 7.125 7.8125 5 7 C3.75 4.4375 3.75 4.4375 3 2 C1.68 2.33 0.36 2.66 -1 3 C-0.67 2.01 -0.34 1.02 0 0 Z " fill="#75C8DE" transform="translate(308,223)"/>
<path d="M0 0 C0.33 0.99 0.66 1.98 1 3 C1.99 3 2.98 3 4 3 C4.99 6.96 5.98 10.92 7 15 C4.51683535 12.51683535 3.3194943 11.07071467 1.8125 8.0625 C1.29623047 7.05896484 1.29623047 7.05896484 0.76953125 6.03515625 C0 4 0 4 0 0 Z " fill="#E87079" transform="translate(208,333)"/>
<path d="M0 0 C1.85546875 0.22265625 1.85546875 0.22265625 4 1 C5.30078125 2.99609375 5.30078125 2.99609375 6.3125 5.4375 C6.65925781 6.24058594 7.00601562 7.04367188 7.36328125 7.87109375 C8 10 8 10 7 12 C6.01287122 10.75627811 5.03560095 9.50472782 4.0625 8.25 C3.51722656 7.55390625 2.97195313 6.8578125 2.41015625 6.140625 C1.02574346 4.03907872 0.43713013 2.45678201 0 0 Z " fill="#EB676F" transform="translate(361,242)"/>
<path d="M0 0 C0.33 0 0.66 0 1 0 C1.1799928 5.21979128 0.97094808 9.07262981 -1 14 C-1.33 14 -1.66 14 -2 14 C-2.05437607 12.41705218 -2.09296271 10.83355744 -2.125 9.25 C-2.14820313 8.36828125 -2.17140625 7.4865625 -2.1953125 6.578125 C-1.99139502 3.8864142 -1.36551721 2.30095026 0 0 Z " fill="#48BEDD" transform="translate(257,302)"/>
<path d="M0 0 C0.33 0.66 0.66 1.32 1 2 C1.66 2 2.32 2 3 2 C5 5 5 5 4.625 7.1875 C4.41875 7.785625 4.2125 8.38375 4 9 C2.68 8.67 1.36 8.34 0 8 C0 5.36 0 2.72 0 0 Z " fill="#DD2733" transform="translate(370,177)"/>
<path d="M0 0 C1.9375 0.375 1.9375 0.375 4 1 C4.33 1.66 4.66 2.32 5 3 C5.66 3.144375 6.32 3.28875 7 3.4375 C7.66 3.623125 8.32 3.80875 9 4 C9.33 4.99 9.66 5.98 10 7 C7.625 7.125 7.625 7.125 5 7 C4.34 6.34 3.68 5.68 3 5 C3 4.01 3 3.02 3 2 C2.01 1.67 1.02 1.34 0 1 C0 0.67 0 0.34 0 0 Z " fill="#4CBDD8" transform="translate(268,376)"/>
<path d="M0 0 C3.27286682 2.7819368 4.96427697 6.27954067 7 10 C5.1875 9.8125 5.1875 9.8125 3 9 C0.46629412 5.65188866 0 4.29875783 0 0 Z " fill="#66C9E0" transform="translate(341,268)"/>
<path d="M0 0 C2.64 0.33 5.28 0.66 8 1 C8 2.65 8 4.3 8 6 C4.21032475 5.45861782 2.48587161 3.84099612 0 1 C0 0.67 0 0.34 0 0 Z " fill="#E33D4C" transform="translate(224,361)"/>
<path d="M0 0 C1 3 1 3 -0.4375 6.1875 C-1.2109375 7.5796875 -1.2109375 7.5796875 -2 9 C-2.99 9 -3.98 9 -5 9 C-3.7508258 5.54074837 -2.32472205 2.85306797 0 0 Z " fill="#5EC4E0" transform="translate(302,232)"/>
<path d="M0 0 C0.99 0.33 1.98 0.66 3 1 C0.03 4.96 0.03 4.96 -3 9 C-3.33 7.68 -3.66 6.36 -4 5 C-2.0625 2.25 -2.0625 2.25 0 0 Z " fill="#72D2E6" transform="translate(359,366)"/>
<path d="M0 0 C1.9668026 1.9668026 2.9371637 3.5444659 4.1875 6 C4.55230469 6.70125 4.91710937 7.4025 5.29296875 8.125 C5.52628906 8.74375 5.75960937 9.3625 6 10 C5.67 10.66 5.34 11.32 5 12 C1.98642026 9.12340116 0.04541243 7.15801695 -0.125 2.8125 C-0.08375 1.884375 -0.0425 0.95625 0 0 Z " fill="#EE838A" transform="translate(234,352)"/>
<path d="M0 0 C0.66 0 1.32 0 2 0 C0.9802693 3.77300358 0.34127338 4.80206144 -3.125 6.8125 C-4.07375 7.204375 -5.0225 7.59625 -6 8 C-5 6 -4 4 -3 2 C-2.01 2 -1.02 2 0 2 C0 1.34 0 0.68 0 0 Z " fill="#40BDD8" transform="translate(282,264)"/>
<path d="M0 0 C1.8125 0.0625 1.8125 0.0625 4 1 C5.8125 4.375 5.8125 4.375 7 8 C6.67 8.99 6.34 9.98 6 11 C4.99735282 9.35577799 3.99794896 7.70957779 3 6.0625 C2.443125 5.14597656 1.88625 4.22945313 1.3125 3.28515625 C0 1 0 1 0 0 Z " fill="#EA5B62" transform="translate(369,254)"/>
<path d="M0 0 C0.33 0.66 0.66 1.32 1 2 C0.67 2.66 0.34 3.32 0 4 C0.66 4.33 1.32 4.66 2 5 C0.6875 6.5 0.6875 6.5 -1 8 C-1.99 8 -2.98 8 -4 8 C-2.25 2.25 -2.25 2.25 0 0 Z " fill="#E45D60" transform="translate(229,223)"/>
<path d="M0 0 C3.15295167 3.15295167 5 6.51187917 5 11 C4.01 11 3.02 11 2 11 C1.34 7.37 0.68 3.74 0 0 Z " fill="#DB1E2E" transform="translate(207,325)"/>
<path d="M0 0 C0 3.39593478 -0.52165948 4.06619881 -2.5 6.6875 C-2.9640625 7.31011719 -3.428125 7.93273437 -3.90625 8.57421875 C-4.2671875 9.04472656 -4.628125 9.51523438 -5 10 C-6.125 6.25 -6.125 6.25 -5 4 C-4.34 4 -3.68 4 -3 4 C-3 3.34 -3 2.68 -3 2 C-2.01 1.34 -1.02 0.68 0 0 Z " fill="#E85A63" transform="translate(270,238)"/>
<path d="M0 0 C0.33 0.66 0.66 1.32 1 2 C1.99 2.33 2.98 2.66 4 3 C5.203125 4.77734375 5.203125 4.77734375 6.25 6.9375 C6.78367187 8.00291016 6.78367187 8.00291016 7.328125 9.08984375 C7.54984375 9.72019531 7.7715625 10.35054687 8 11 C7.67 11.66 7.34 12.32 7 13 C5.82479354 11.40207898 4.66008753 9.79643092 3.5 8.1875 C2.8503125 7.29417969 2.200625 6.40085938 1.53125 5.48046875 C0 3 0 3 0 0 Z " fill="#EB6E75" transform="translate(353,229)"/>
<path d="M0 0 C2.64465038 3.1254959 3.84414715 6.08788267 5 10 C4.34 10 3.68 10 3 10 C3 9.34 3 8.68 3 8 C2.34 8 1.68 8 1 8 C-0.35439668 5.29120665 -0.06501451 2.99066732 0 0 Z " fill="#E46A6F" transform="translate(399,225)"/>
<path d="M0 0 C0.99 0.33 1.98 0.66 3 1 C3.6875 3.0625 3.6875 3.0625 4 5 C4.66 5 5.32 5 6 5 C6.33 6.65 6.66 8.3 7 10 C3.60582235 6.87378374 1.3937282 4.43458973 0 0 Z " fill="#E85461" transform="translate(346,219)"/>
<path d="M0 0 C0.99 0.33 1.98 0.66 3 1 C-0.625 6.875 -0.625 6.875 -4 8 C-2.87548273 5.0280615 -1.77706209 2.66559313 0 0 Z " fill="#E46067" transform="translate(234,215)"/>
<path d="M0 0 C0.625 1.8125 0.625 1.8125 1 4 C0.01 5.485 0.01 5.485 -1 7 C-1.66 7 -2.32 7 -3 7 C-3 7.99 -3 8.98 -3 10 C-3.99 10.33 -4.98 10.66 -6 11 C-4.54955729 6.89041233 -2.48889248 3.56741255 0 0 Z " fill="#EB757F" transform="translate(252,187)"/>
<path d="M0 0 C0.99 0.495 0.99 0.495 2 1 C2.6328125 3.50390625 2.6328125 3.50390625 3.125 6.5625 C3.29257812 7.57441406 3.46015625 8.58632812 3.6328125 9.62890625 C3.75398438 10.41136719 3.87515625 11.19382813 4 12 C2.68 11.67 1.36 11.34 0 11 C0 7.37 0 3.74 0 0 Z " fill="#DB0F1D" transform="translate(360,152)"/>
<path d="M0 0 C1.875 0.25 1.875 0.25 4 1 C5.72101535 3.58152302 6 4.84918025 6 8 C5.01 7.67 4.02 7.34 3 7 C1.3125 3.4375 1.3125 3.4375 0 0 Z " fill="#E55B68" transform="translate(215,348)"/>
<path d="M0 0 C1 2 1 2 0.3125 4.5625 C-1 7 -1 7 -3.125 7.8125 C-3.74375 7.874375 -4.3625 7.93625 -5 8 C-5 8.99 -5 9.98 -5 11 C-5.66 11 -6.32 11 -7 11 C-6.61851514 8.23423473 -6.3165808 7.24509481 -4.0625 5.5 C-3.381875 5.005 -2.70125 4.51 -2 4 C-0.7483533 1.91665365 -0.7483533 1.91665365 0 0 Z " fill="#DD1F2D" transform="translate(236,216)"/>
<path d="M0 0 C0.66 0 1.32 0 2 0 C0.66666667 3.33333333 -0.66666667 6.66666667 -2 10 C-2.33 10 -2.66 10 -3 10 C-3.2295711 6.63295715 -3.33943529 4.58629732 -1.625 1.625 C-1.08875 1.08875 -0.5525 0.5525 0 0 Z " fill="#E7616A" transform="translate(283,214)"/>
<path d="M0 0 C0 2.8869287 -0.3851052 4.46894565 -1.375 7.125 C-1.63023437 7.82882813 -1.88546875 8.53265625 -2.1484375 9.2578125 C-3 11 -3 11 -5 12 C-4.2115777 7.40086993 -3.36569395 3.36569395 0 0 Z " fill="#DE2C3A" transform="translate(284,82)"/>
<path d="M0 0 C0.75 1.6875 0.75 1.6875 1 4 C-0.9375 6.75 -0.9375 6.75 -3 9 C-3.36923077 3.46153846 -3.36923077 3.46153846 -1.5 1.125 C-1.005 0.75375 -0.51 0.3825 0 0 Z " fill="#E04751" transform="translate(216,247)"/>
<path d="M0 0 C0.66 0.33 1.32 0.66 2 1 C0.02 3.31 -1.96 5.62 -4 8 C-4.99 7.67 -5.98 7.34 -7 7 C-6.01 6.34 -5.02 5.68 -4 5 C-3.67 4.01 -3.34 3.02 -3 2 C-2.01 1.34 -1.02 0.68 0 0 Z " fill="#E12131" transform="translate(351,102)"/>
<path d="M0 0 C3.99455527 0.61454696 6.74466336 2.70646737 10 5 C8 6 8 6 6.125 5.875 C3.13170878 4.64246832 1.85618632 2.58540237 0 0 Z " fill="#EA6872" transform="translate(267,144)"/>
<path d="M0 0 C0.33 0 0.66 0 1 0 C1.33 2.64 1.66 5.28 2 8 C1.01 8.33 0.02 8.66 -1 9 C-0.67 6.03 -0.34 3.06 0 0 Z " fill="#DE232E" transform="translate(393,344)"/>
<path d="M0 0 C0.66 0.99 1.32 1.98 2 3 C1.01 3.33 0.02 3.66 -1 4 C-1.35412344 5.32796291 -1.68521554 6.66216607 -2 8 C-3.5625 9.75 -3.5625 9.75 -5 11 C-3.55049545 7.2089881 -1.84827434 3.6125362 0 0 Z " fill="#30B5DA" transform="translate(297,241)"/>
<path d="M0 0 C0.6875 1.75 0.6875 1.75 1 4 C-0.3125 6.25 -0.3125 6.25 -2 8 C-2.66 8 -3.32 8 -4 8 C-2.25 2.25 -2.25 2.25 0 0 Z " fill="#E46B6F" transform="translate(224,231)"/>
<path d="M0 0 C0.99 0 1.98 0 3 0 C2.65120368 3.25543229 1.97866739 4.01873107 -0.5625 6.25 C-1.366875 6.8275 -2.17125 7.405 -3 8 C-2.5359375 7.13375 -2.5359375 7.13375 -2.0625 6.25 C-1.07416636 4.15705816 -0.4831387 2.25464725 0 0 Z " fill="#E01E2D" transform="translate(225,231)"/>
<path d="M0 0 C1.485 0.99 1.485 0.99 3 2 C3 2.99 3 3.98 3 5 C3.99 5.33 4.98 5.66 6 6 C6.33 6.99 6.66 7.98 7 9 C5 9 5 9 3.375 7.625 C2 6 2 6 2 4 C1.34 4 0.68 4 0 4 C0 2.68 0 1.36 0 0 Z " fill="#EC8187" transform="translate(278,150)"/>
<path d="M0 0 C3.11373372 1.49920512 6.12228205 3.08152136 9 5 C9 5.66 9 6.32 9 7 C4.58110387 5.64978174 2.65654657 3.73884332 0 0 Z " fill="#EF757F" transform="translate(282,139)"/>
<path d="M0 0 C0.33 0 0.66 0 1 0 C0.67 2.97 0.34 5.94 0 9 C-0.99 9.33 -1.98 9.66 -3 10 C-2.01 6.7 -1.02 3.4 0 0 Z " fill="#E96F77" transform="translate(292,59)"/>
<path d="M0 0 C1.8125 0.125 1.8125 0.125 4 1 C5.75 4.0625 5.75 4.0625 7 7 C3.17053157 5.54744301 1.87949705 3.57104439 0 0 Z " fill="#E1545F" transform="translate(237,372)"/>
<path d="M0 0 C0.66 0 1.32 0 2 0 C1.67 1.65 1.34 3.3 1 5 C0.01 5.33 -0.98 5.66 -2 6 C-1.125 1.125 -1.125 1.125 0 0 Z " fill="#DC4350" transform="translate(406,346)"/>
<path d="M0 0 C0.33 0 0.66 0 1 0 C0.125 6.75 0.125 6.75 -1 9 C-1.66 8.67 -2.32 8.34 -3 8 C-1.125 2.25 -1.125 2.25 0 0 Z " fill="#40BADA" transform="translate(271,278)"/>
<path d="M0 0 C0.66 0 1.32 0 2 0 C0.8141763 3.37503669 -0.27573689 5.64722731 -3 8 C-3 6.35 -3 4.7 -3 3 C-2.34 3 -1.68 3 -1 3 C-0.67 2.01 -0.34 1.02 0 0 Z " fill="#E4545D" transform="translate(274,230)"/>
<path d="M0 0 C0.66 0 1.32 0 2 0 C3.32 2.97 4.64 5.94 6 9 C5.34 9 4.68 9 4 9 C0 2.25 0 2.25 0 0 Z " fill="#E64B58" transform="translate(324,178)"/>
<path d="M0 0 C4.875 4.75 4.875 4.75 6 7 C4.125 6.875 4.125 6.875 2 6 C0.75 2.9375 0.75 2.9375 0 0 Z " fill="#EA6F78" transform="translate(303,41)"/>
<path d="" fill="#FFFFFF" transform="translate(0,0)"/>
<path d="" fill="#FFFFFF" transform="translate(0,0)"/>
<path d="" fill="#FFFFFF" transform="translate(0,0)"/>
<path d="" fill="#FFFFFF" transform="translate(0,0)"/>
<path d="" fill="#FFFFFF" transform="translate(0,0)"/>
<path d="" fill="#FFFFFF" transform="translate(0,0)"/>
<path d="" fill="#FFFFFF" transform="translate(0,0)"/>
<path d="" fill="#FFFFFF" transform="translate(0,0)"/>
<path d="" fill="#FFFFFF" transform="translate(0,0)"/>
<path d="" fill="#FFFFFF" transform="translate(0,0)"/>
<path d="" fill="#FFFFFF" transform="translate(0,0)"/>
<path d="" fill="#FFFFFF" transform="translate(0,0)"/>
<path d="" fill="#FFFFFF" transform="translate(0,0)"/>
<path d="" fill="#FFFFFF" transform="translate(0,0)"/>
<path d="" fill="#FFFFFF" transform="translate(0,0)"/>
<path d="" fill="#FFFFFF" transform="translate(0,0)"/>
<path d="" fill="#FFFFFF" transform="translate(0,0)"/>
<path d="" fill="#FFFFFF" transform="translate(0,0)"/>
<path d="" fill="#FFFFFF" transform="translate(0,0)"/>
<path d="" fill="#FFFFFF" transform="translate(0,0)"/>
<path d="" fill="#FFFFFF" transform="translate(0,0)"/>
<path d="" fill="#FFFFFF" transform="translate(0,0)"/>
<path d="" fill="#FFFFFF" transform="translate(0,0)"/>
<path d="" fill="#FFFFFF" transform="translate(0,0)"/>
<path d="" fill="#FFFFFF" transform="translate(0,0)"/>
<path d="" fill="#FFFFFF" transform="translate(0,0)"/>
<path d="" fill="#FFFFFF" transform="translate(0,0)"/>
<path d="" fill="#FFFFFF" transform="translate(0,0)"/>
<path d="" fill="#FFFFFF" transform="translate(0,0)"/>
<path d="" fill="#FFFFFF" transform="translate(0,0)"/>
<path d="" fill="#FFFFFF" transform="translate(0,0)"/>
<path d="" fill="#FFFFFF" transform="translate(0,0)"/>
<path d="" fill="#FFFFFF" transform="translate(0,0)"/>
<path d="" fill="#FFFFFF" transform="translate(0,0)"/>
<path d="" fill="#FFFFFF" transform="translate(0,0)"/>
<path d="" fill="#FFFFFF" transform="translate(0,0)"/>
<path d="" fill="#FFFFFF" transform="translate(0,0)"/>
<path d="" fill="#FFFFFF" transform="translate(0,0)"/>
<path d="" fill="#FFFFFF" transform="translate(0,0)"/>
<path d="" fill="#FFFFFF" transform="translate(0,0)"/>
</svg>
